<svg width="60" height="60" viewBox="0 0 60 60" fill="none" xmlns="http://www.w3.org/2000/svg">
<path d="M52.8 15.7474L32.175 4.46222C31.6235 4.15899 31.0044 4 30.375 4C29.7456 4 29.1265 4.15899 28.575 4.46222L7.95 15.7544C7.36099 16.0767 6.8693 16.5512 6.52629 17.1284C6.18328 17.7056 6.00152 18.3642 6 19.0357V41.4513C6.00152 42.1227 6.18328 42.7814 6.52629 43.3586C6.8693 43.9358 7.36099 44.4103 7.95 44.7325L28.575 56.0224C29.1261 56.3269 29.7454 56.4866 30.375 56.4866C31.0046 56.4866 31.6239 56.3269 32.175 56.0224L52.8 44.7325C53.389 44.4103 53.8807 43.9358 54.2237 43.3586C54.5667 42.7814 54.7485 42.1227 54.75 41.4513V19.0357C54.7497 18.3631 54.5686 17.7029 54.2255 17.1244C53.8824 16.5458 53.3901 16.0702 52.8 15.7474ZM39.75 35.8685V47.6083L32.25 51.7146V31.3544L51 21.0888V28.5888L40.725 34.2138C40.4284 34.3761 40.1812 34.6155 40.0096 34.9068C39.8379 35.1981 39.7482 35.5304 39.75 35.8685ZM20.025 34.2278L9.75 28.6028V21.1028L28.5 31.3685V51.7286L21 47.6083V35.8685C20.9992 35.5328 20.9084 35.2034 20.7369 34.9148C20.5653 34.6262 20.3195 34.389 20.025 34.2278ZM19.8609 13.5068L29.4703 18.7685C29.7463 18.9195 30.0558 18.9986 30.3703 18.9986C30.6849 18.9986 30.9944 18.9195 31.2703 18.7685L40.8797 13.5068L48.9609 17.9294L30.375 28.106L11.7797 17.9247L19.8609 13.5068ZM30.375 7.74347L36.9844 11.3622L30.375 14.9833L23.7656 11.3646L30.375 7.74347ZM9.75 32.8732L17.25 36.9794V45.5552L9.75 41.4513V32.8732ZM43.5 45.5552V36.9794L51 32.8732V41.4513L43.5 45.5552Z" fill="white"/>
</svg>
