<svg width="39" height="40" viewBox="0 0 39 40" fill="none" xmlns="http://www.w3.org/2000/svg">
<g clip-path="url(#clip0_1_65)">
<path d="M19.5 0.5C15.6433 0.5 11.8731 1.64366 8.66639 3.78634C5.45963 5.92903 2.96027 8.97451 1.48436 12.5377C0.00844896 16.1008 -0.377716 20.0216 0.374696 23.8043C1.12711 27.5869 2.9843 31.0615 5.71143 33.7886C8.43855 36.5157 11.9131 38.3729 15.6957 39.1253C19.4784 39.8777 23.3992 39.4916 26.9623 38.0156C30.5255 36.5397 33.571 34.0404 35.7137 30.8336C37.8564 27.6269 39 23.8567 39 20C38.9945 14.83 36.9383 9.87322 33.2826 6.21745C29.6268 2.56167 24.6701 0.50546 19.5 0.5ZM19.5 36.5C16.2366 36.5 13.0465 35.5323 10.3331 33.7192C7.61969 31.9062 5.50484 29.3293 4.256 26.3143C3.00715 23.2993 2.6804 19.9817 3.31705 16.781C3.95371 13.5803 5.52518 10.6403 7.83275 8.33274C10.1403 6.02517 13.0803 4.4537 16.281 3.81704C19.4817 3.18039 22.7993 3.50714 25.8143 4.75599C28.8293 6.00483 31.4062 8.11968 33.2193 10.8331C35.0323 13.5465 36 16.7366 36 20C35.995 24.3745 34.2551 28.5685 31.1618 31.6618C28.0685 34.7551 23.8746 36.495 19.5 36.5ZM28.0613 18.9387C28.2007 19.0781 28.3114 19.2435 28.3868 19.4256C28.4623 19.6077 28.5012 19.8029 28.5012 20C28.5012 20.1971 28.4623 20.3923 28.3868 20.5744C28.3114 20.7565 28.2007 20.9219 28.0613 21.0613L22.0613 27.0613C21.7798 27.3427 21.3981 27.5008 21 27.5008C20.602 27.5008 20.2202 27.3427 19.9388 27.0613C19.6573 26.7798 19.4992 26.398 19.4992 26C19.4992 25.602 19.6573 25.2202 19.9388 24.9387L23.3794 21.5H12C11.6022 21.5 11.2207 21.342 10.9393 21.0607C10.658 20.7794 10.5 20.3978 10.5 20C10.5 19.6022 10.658 19.2206 10.9393 18.9393C11.2207 18.658 11.6022 18.5 12 18.5H23.3794L19.9388 15.0613C19.6573 14.7798 19.4992 14.398 19.4992 14C19.4992 13.602 19.6573 13.2202 19.9388 12.9387C20.2202 12.6573 20.602 12.4992 21 12.4992C21.3981 12.4992 21.7798 12.6573 22.0613 12.9387L28.0613 18.9387Z" fill="#F0F0F0"/>
</g>
<defs>
<clipPath id="clip0_1_65">
<rect width="39" height="40" fill="white"/>
</clipPath>
</defs>
</svg>
